<?xml version="1.0" encoding="UTF-8"?>
<svg width="166px" height="40px" viewBox="0 0 166 40" version="1.1" xmlns="http://www.w3.org/2000/svg" xmlns:xlink="http://www.w3.org/1999/xlink">
    <!-- Generator: Sketch 60 (88103) - https://sketch.com -->
    <title>Group 3</title>
    <desc>Created with Sketch.</desc>
    <defs>
        <polygon id="path-1" points="0 0 165.544614 0 165.544614 39.6592659 0 39.6592659"></polygon>
    </defs>
    <g id="Symbols" stroke="none" stroke-width="1" fill="none" fill-rule="evenodd">
        <g id="Navigation" transform="translate(-32.000000, -24.000000)">
            <g id="Group-3" transform="translate(32.000000, 24.000000)">
                <mask id="mask-2" fill="white">
                    <use xlink:href="#path-1"></use>
                </mask>
                <g id="Clip-2"></g>
                <path d="M141.623132,29.1076786 C141.623132,29.6008929 141.22445,30.0005357 140.732421,30.0005357 L131.290886,30.0005357 C130.798858,30.0005357 130.400176,29.6008929 130.400176,29.1076786 L130.400176,25.8933929 C130.400176,25.4001786 130.798858,25.0005357 131.290886,25.0005357 L140.732421,25.0005357 C141.22445,25.0005357 141.623132,25.4001786 141.623132,25.8933929 L141.623132,29.1076786 Z M82.1236474,28.7505357 C82.1236474,29.24375 81.7249652,29.6433929 81.2329366,29.6433929 L73.0383967,29.6433929 C72.546368,29.6433929 72.1476859,29.24375 72.1476859,28.7505357 L72.1476859,25.53625 C72.1476859,25.0430357 72.546368,24.6433929 73.0383967,24.6433929 L81.2329366,24.6433929 C81.7249652,24.6433929 82.1236474,25.0430357 82.1236474,25.53625 L82.1236474,28.7505357 Z M33.1345506,20.0005357 C32.4864694,20.1026786 17.1017552,20.0005357 17.1017552,20.0005357 C17.1017552,20.0005357 16.0528541,20.2005357 16.9236131,19.28625 C17.794372,18.3719643 24.5837264,8.75053571 24.5837264,8.75053571 C24.5837264,8.75053571 24.8534336,8.17375 25.2962951,8.75053571 L32.9564084,18.9291071 C32.9564084,18.9291071 33.7826318,19.8983929 33.1345506,20.0005357 L33.1345506,20.0005357 Z M54.8678953,4.37553571 C54.8678953,4.03053571 55.1472223,3.75053571 55.4913929,3.75053571 C55.8355636,3.75053571 56.1148905,4.03053571 56.1148905,4.37553571 L56.1148905,19.3755357 C56.1148905,19.7205357 55.8355636,20.0005357 55.4913929,20.0005357 C55.1472223,20.0005357 54.8678953,19.7205357 54.8678953,19.3755357 L54.8678953,4.37553571 Z M164.959757,30.0005357 L147.858108,29.8219643 C147.858108,29.8219643 147.255275,29.93375 147.14554,29.1076786 L147.14554,23.3933929 C147.14554,23.3933929 146.782486,21.4669643 144.117123,20.8933929 L127.549901,20.8933929 C127.549901,20.8933929 125.412907,20.9105357 125.234053,22.6791071 C125.055198,24.4476786 125.234053,28.9291071 125.234053,28.9291071 C125.234053,28.9291071 125.270037,29.8816071 124.343342,29.8219643 L117.395797,29.8219643 C117.395797,29.8219643 116.771587,29.68875 116.683228,29.1076786 C116.59487,28.5266071 116.683228,23.9291071 116.683228,23.9291071 C116.683228,23.9291071 116.701399,21.6058929 113.476669,20.8933929 L99.4034379,20.7148214 C99.4034379,20.7148214 99.2502357,20.6091071 99.2252958,20.0005357 C99.2003559,19.3919643 99.2252958,0.714821429 99.2252958,0.714821429 C99.2252958,0.714821429 99.2060564,-0.0244642857 98.5127271,0.000535714286 L94.4154572,0.000535714286 C94.4154572,0.000535714286 93.8820995,0.127321429 93.8810306,0.53625 L93.7028885,28.2148214 C93.7028885,28.2148214 93.5560993,29.4719643 92.8121776,29.4648214 C92.0678996,29.4576786 88.1804812,29.4648214 88.1804812,29.4648214 C88.1804812,29.4648214 87.4411912,29.6169643 87.4679125,28.5719643 C87.4946338,27.5269643 87.4679125,21.9648214 87.4679125,21.9648214 C87.4679125,21.9648214 87.4971278,21.09625 86.3990595,20.8933929 C85.3009912,20.6905357 70.5444063,20.7148214 70.5444063,20.7148214 L67.1597051,20.8933929 C67.1597051,20.8933929 66.6644699,21.1273214 66.6252786,21.6076786 C66.5860873,22.0880357 66.6252786,29.28625 66.6252786,29.28625 C66.6252786,29.28625 66.4724326,29.4780357 65.9127099,29.4648214 L55.7586062,29.4648214 C55.7586062,29.4648214 54.8458057,29.59125 54.6897532,28.5719643 C54.5340569,27.5526786 54.6897532,25.0005357 54.6897532,25.0005357 C54.6897532,25.0005357 54.6712264,24.5594643 55.2241797,24.4648214 C55.777133,24.3701786 58.2525966,24.28625 58.2525966,24.28625 C58.2525966,24.28625 60.9336362,23.3448214 60.9247291,21.6076786 C60.915822,19.8705357 60.9247291,2.32196429 60.9247291,2.32196429 C60.9247291,2.32196429 59.5362891,-0.08875 54.511611,0.179107143 C50.3078121,0.403035714 49.8799146,2.50053571 49.8799146,2.50053571 L49.7017724,20.1791071 L40.2602374,20.1791071 L25.4744372,0.357678571 C25.4744372,0.357678571 24.7233899,-0.129821429 24.2274421,0.53625 C23.731138,1.20232143 9.79792625,20.1791071 9.79792625,20.1791071 L0.534533396,20.1791071 C0.534533396,20.1791071 -0.00880022321,20.29375 -1.44360036e-06,20.7148214 C0.00901399382,21.1358929 -1.44360036e-06,23.9291071 -1.44360036e-06,23.9291071 C-1.44360036e-06,23.9291071 0.266963856,24.3073214 0.534533396,24.28625 L6.41322502,24.28625 L6.41322502,24.6433929 L0.534533396,32.6791071 C0.534533396,32.6791071 0.0735014595,33.3451786 0.712675567,33.5719643 C1.35184967,33.79875 6.23508285,33.7505357 6.23508285,33.7505357 L13.1826275,24.28625 L36.8755361,24.28625 L43.8230808,33.7505357 L49.5236302,33.7505357 C49.5236302,33.7505357 50.1471278,33.7876786 49.7017724,33.03625 C49.256417,32.2848214 43.6449386,24.8219643 43.6449386,24.8219643 C43.6449386,24.8219643 43.4475571,24.3466071 43.8230808,24.28625 C44.1986045,24.2258929 48.9892037,24.1076786 48.9892037,24.1076786 C48.9892037,24.1076786 49.9233813,24.0505357 49.8799146,24.4648214 L49.8799146,30.3576786 C49.8799146,30.3576786 50.3933203,33.6823214 54.1553267,33.7505357 C57.917333,33.81875 65.7345677,33.7505357 65.7345677,33.7505357 C65.7345677,33.7505357 66.2914402,33.7376786 66.2689942,34.28625 C66.2469046,34.8348214 66.2689942,39.1076786 66.2689942,39.1076786 C66.2689942,39.1076786 66.2102073,39.6076786 66.9815629,39.6433929 C67.7529185,39.6791071 71.6132594,39.6433929 71.6132594,39.6433929 L71.7914015,34.28625 C71.7914015,34.28625 71.7671742,33.7123214 72.325828,33.7505357 C72.8844819,33.78875 86.3990595,33.9291071 86.3990595,33.9291071 L87.1116282,33.2148214 L87.8241969,33.9291071 L97.9783006,33.9291071 L99.2252958,33.2148214 L99.2252958,25.3576786 C99.2252958,25.3576786 99.3514204,24.8880357 99.7597223,24.8219643 C100.168024,24.7558929 108.844973,24.6433929 108.844973,24.6433929 C108.844973,24.6433929 110.938143,25.2058929 111.160821,26.9648214 L111.160821,32.3219643 C111.160821,32.3219643 111.03149,34.0008929 113.120385,34.28625 L124.699626,34.28625 L125.234053,33.7505357 C125.234053,33.7505357 125.716462,34.4155357 126.124763,34.4648214 L141.266848,34.4648214 L141.979417,33.7505357 C141.979417,33.7505357 142.439023,34.43375 142.870127,34.4648214 L164.42533,34.4648214 L165.137899,34.4648214 C165.137899,34.4648214 165.483138,34.65125 165.494183,33.9291071 C165.505228,33.2069643 165.494183,30.8933929 165.494183,30.8933929 C165.494183,30.8933929 165.787405,30.0333929 164.959757,30.0005357 L164.959757,30.0005357 Z" id="Fill-1" fill="#3B4490" mask="url(#mask-2)"></path>
            </g>
        </g>
    </g>
</svg>