<?xml version="1.0" encoding="utf-8"?>
<!-- Generator: Adobe Illustrator 18.1.1, SVG Export Plug-In . SVG Version: 6.00 Build 0)  -->
<svg version="1.1" id="Layer_1" xmlns="http://www.w3.org/2000/svg" xmlns:xlink="http://www.w3.org/1999/xlink" x="0px" y="0px"
	 viewBox="0 0 585 128" enable-background="new 0 0 585 128" xml:space="preserve">
<path fill="#EA2046" d="M25.3,125.1h535.9c12.2,0,22.1-9.9,22.1-22.1V24.3c0-12.2-9.9-22.1-22.1-22.1H25.3
	c-12.2,0-22.1,9.9-22.1,22.1v78.8C3.2,115.3,13.1,125.1,25.3,125.1z"/>
<g>
	<path fill="#FFFFFF" d="M109.7,42.5c-0.5-0.2-1.1-0.3-1.6-0.3c-16,0-32.1,0-48.1,0c-0.5,0-0.7-0.1-0.8-0.6c-0.6-2-1.2-4-1.8-6
		c-0.9-2.9-3.5-4.9-6.4-5c-3.1-0.1-6.2,0-9.2,0c-1,0-1.8,0.7-2,1.6c-0.4,1.5,0.6,2.9,2.2,2.9c2.8,0,5.5,0,8.3,0
		c1.7,0,2.6,0.7,3.1,2.3C57.5,51.5,61.8,65.8,66,80c0.7,2.3,2.2,3.5,4.7,3.5h31.2c0.3,0,0.6,0,0.9,0c1.1-0.1,2-1,2-2.1
		c0.1-1.4-0.9-2.4-2.5-2.4c-10.1,0-20.2,0-30.3,0c-0.6,0-1.3,0.2-1.6-0.1c-0.4-0.3-0.4-1-0.6-1.5c-0.3-1-0.6-2-0.9-3h0.9
		c9.7,0,19.4,0,29.2,0c2.5,0,4.2-1.3,5-3.7c1.4-4.7,2.8-9.4,4.2-14.1c1-3.5,2.1-7,3.1-10.4C111.8,44.6,111.1,43.1,109.7,42.5z
		 M99.3,65.2c0,0.7-0.6,1.3-1.3,1.3H73.1c-0.7,0-1.3-0.6-1.3-1.3V65c0-0.7,0.6-1.3,1.3-1.3H98c0.7,0,1.3,0.6,1.3,1.3V65.2z
		 M102,58.5c0,0.9-0.7,1.6-1.6,1.6H70.7c-0.9,0-1.6-0.7-1.6-1.6v-0.2c0-0.9,0.7-1.6,1.6-1.6h29.8c0.9,0,1.6,0.7,1.6,1.6V58.5z
		 M105.3,51.5c0,1.1-0.9,1.9-1.9,1.9H67.7c-1.1,0-1.9-0.9-1.9-1.9v-0.3c0-1.1,0.9-1.9,1.9-1.9h35.6c1.1,0,1.9,0.9,1.9,1.9V51.5z"/>
	<path fill="#FFFFFF" d="M69.9,96.8c-3.1,0-5.6-2.5-5.5-5.6c0-3.1,2.5-5.5,5.6-5.5c3,0,5.5,2.5,5.5,5.5C75.4,94.4,73,96.8,69.9,96.8
		z"/>
	<path fill="#FFFFFF" d="M97.9,96.8c-3.1,0-5.5-2.5-5.5-5.6c0-3,2.5-5.5,5.5-5.5c3.1,0,5.5,2.5,5.5,5.6
		C103.4,94.4,100.9,96.8,97.9,96.8z"/>
</g>
<polygon fill-rule="evenodd" clip-rule="evenodd" fill="#FFFFFF" points="223.7,43.6 204.4,43.6 208.3,47.4 208.3,85.9 204,90.1 
	223.3,90.1 219.2,86 219.2,47.7 "/>
<polygon fill="#FFFFFF" points="294.4,43.3 294.5,43.2 276.4,43.2 280.2,47 280.2,71 259.3,43.2 259.3,43.2 240.6,43.2 244.9,47.7 
	244.9,85.9 240.9,90.2 259.3,90.2 255.3,85.6 255.3,58.8 278.7,90.1 278.7,90.1 294.1,90.1 290.5,85.5 290.5,47.6 "/>
<polygon fill="#FFFFFF" points="412.1,81.2 388.4,81.2 388.4,70.3 407.3,70.3 410.6,73.6 410.7,73.5 410.7,58.8 410.6,58.8 
	407.9,61.6 388.2,61.6 388.2,51.3 410.4,51.5 414.8,55.7 414.9,55.8 414.9,43.1 374.1,43.1 378.2,47.3 378.2,85.8 374.3,90 
	374.2,90.1 416.1,90.1 416.1,77.6 "/>
<path fill="#FFFFFF" d="M460.7,90h19.9l-4.7-5.4l-7.5-11.9c3.3-1.4,5.9-3.6,7.7-6.5c1.6-2.7,2.4-5.8,2.2-9c-0.2-3.1-1.2-6.1-3-8.5
	c-1.9-2.6-4.6-4.5-7.9-5.5l-34.9,0l3.7,4.2v38.3l-3.9,4.2l-0.1,0.1h19l-4.1-4.3V73.9h9.1l8.2,11.8l-3.7,4.2L460.7,90z M447.2,52.2
	l15.4-0.1c2.7,0.7,4.6,2.7,4.8,5.4c0.3,3.1-1.6,6-4.8,7.5h-15.4V52.2z"/>
<path fill="#FFFFFF" d="M341.7,65.5l4,4.7v8c-2,2.2-7.1,3.6-10.8,3.6c-1.1,0-2-0.1-2.7-0.3c-9.3-2.9-12.5-10.6-11.6-17
	c0.8-5.8,5.6-12.5,16.3-12.7c0.1,0,0.1,0,0.2,0c4.5,0,10.9,2.1,16.1,5.2l0.1,0.1V43.5l-2.9,1.8c-3.4-0.8-10-2.2-15.6-2.2
	c-1.7,0-3.2,0.1-4.4,0.4c-10,2.1-16.9,8.7-18.9,18.2c-1,4.5-0.7,9.4,0.8,13.7c1.6,4.5,4.3,8.3,7.8,10.8c2.9,2.1,8.4,4.3,15.3,4.3
	c5.4,0,13.4-1.5,20.8-8.4l0,0l0.1-12.1l4.4-4.5H341.7z"/>
<path fill="#FFFFFF" d="M186.7,71.3c-3-7.2-11.4-8.1-18.1-8.8c-4.6-0.5-8.6-0.9-10.1-3.1c-0.7-1-0.9-2.4-0.4-4.1
	c0.7-2.7,4.7-4.4,10.8-4.4c6.2,0,13,1.7,16.8,4.3l0.1,0.1V42.8l-2.3,1.8c-5.1-1.2-9.9-1.9-14.5-1.9c-8.5,0-15.2,2.2-19,6.1
	c-2.3,2.4-3.3,5.2-3.2,8.5c0.2,5.7,2.4,9.4,6.5,11.4c3.6,1.8,8.2,2,12.2,2.2c4.9,0.3,9.2,0.5,10.6,3.2c0.6,1.3,0.6,2.5,0,3.5
	c-1.4,2.2-5.6,3.5-11,3.5c-5.7,0-13.8-1.7-17.9-6.4l-0.1,0v15.4l2.9-2.4c5.7,1.7,11.2,2.6,16.1,2.6c9,0,16.2-3,19.6-8.1
	C188,79,188.3,75.1,186.7,71.3"/>
<g>
	<path fill="#FFFFFF" d="M500.6,84.9h5.1v5.3h-5.1V84.9z"/>
	<path fill="#FFFFFF" d="M513.6,54.3h4.4v35.8h-4.4V54.3z"/>
	<path fill="#FFFFFF" d="M524.4,54.3h4.2v20.8L539.9,64h5.6l-10,9.8l10.6,16.3h-5.6L532.4,77l-3.7,3.4v9.8h-4.2V54.3z"/>
</g>
<g>
	<path fill="#FFFFFF" d="M476.1,41.2c0-1.3,0.5-2.4,1.4-3.3s2-1.4,3.3-1.4s2.4,0.5,3.3,1.4c0.9,0.9,1.3,2,1.3,3.3s-0.5,2.4-1.3,3.3
		c-0.9,0.9-2,1.4-3.3,1.4s-2.4-0.5-3.3-1.4S476.1,42.5,476.1,41.2z M484.6,41.2c0-1.1-0.4-2-1.1-2.7s-1.7-1.1-2.7-1.1
		s-2,0.4-2.7,1.1c-0.8,0.8-1.1,1.7-1.1,2.7s0.4,2,1.1,2.7c0.8,0.8,1.7,1.1,2.7,1.1s2-0.4,2.7-1.1S484.6,42.3,484.6,41.2z M482.2,44
		l-1.4-2.4h-0.8V44h-0.8v-5.7h1.5c1.4,0,2.1,0.5,2.1,1.6c0,0.7-0.4,1.2-1.1,1.5L483,44H482.2z M479.9,39v1.9c0.1,0,0.2,0,0.5,0
		c0.5,0,0.9-0.1,1.1-0.2s0.3-0.4,0.3-0.8c0-0.6-0.4-0.9-1.2-0.9h-0.3L479.9,39z"/>
</g>
</svg>
